<?xml version="1.0" encoding="UTF-8"?>
<svg id="Layer_1" xmlns="http://www.w3.org/2000/svg" width="260.481" height="105" version="1.1" viewBox="0 0 260.481 105">
  <!-- Generator: Adobe Illustrator 29.0.1, SVG Export Plug-In . SVG Version: 2.1.0 Build 192)  -->
  <g id="acronimo">
    <g>
      <path d="M31.698,46.698h-12.85v10.605h14.302v3.257H14.843v-29.66h17.603v3.256h-13.598v9.286h12.85v3.256Z" fill="#231f20"/>
      <path d="M41.948,51.099l-3.433,9.461h-4.225l11.222-29.66h4.885l11.31,29.66h-4.356l-3.564-9.461h-11.838ZM52.906,48.018l-3.433-8.889c-.704-1.893-1.145-3.433-1.628-4.929h-.089c-.439,1.54-.924,3.124-1.54,4.84l-3.389,8.978h10.078Z" fill="#231f20"/>
      <path d="M92.111,65.005c-4.577-1.056-8.802-2.2-12.895-3.477-.66-.22-1.32-.396-2.024-.439-7.745-.353-14.609-5.633-14.609-14.962s6.513-15.755,15.446-15.755c9.064,0,15.094,6.469,15.094,15.006,0,7.481-4.093,12.454-9.594,14.303v.176c3.257.704,6.865,1.408,9.638,1.805l-1.056,3.344ZM77.764,57.92c6.865,0,11.09-5.28,11.09-12.321,0-6.029-3.74-12.058-10.87-12.058-7.349,0-11.177,5.853-11.177,12.497,0,6.425,4.225,11.882,10.913,11.882h.044Z" fill="#231f20"/>
    </g>
    <rect x="14.808" y="71.056" width="78.482" height="1.991" fill="#00bff2"/>
  </g>
  <g id="nombreunidad">
    <path d="M130.255,39.648h-5.766v5.347h6.425v1.606h-8.339v-14.83h8.009v1.606h-6.095v4.687h5.766v1.584Z" fill="#626366"/>
    <path d="M132.299,44.621c.572.374,1.584.771,2.553.771,1.408,0,2.068-.704,2.068-1.584,0-.925-.551-1.431-1.98-1.959-1.914-.682-2.816-1.738-2.816-3.015,0-1.716,1.386-3.124,3.675-3.124,1.078,0,2.023.308,2.618.66l-.484,1.408c-.418-.264-1.188-.616-2.178-.616-1.145,0-1.782.66-1.782,1.452,0,.88.638,1.276,2.023,1.805,1.849.704,2.795,1.628,2.795,3.212,0,1.87-1.452,3.19-3.982,3.19-1.166,0-2.244-.286-2.993-.726l.484-1.475Z" fill="#626366"/>
    <path d="M148.096,46.205c-.506.265-1.628.616-3.059.616-3.212,0-5.303-2.178-5.303-5.435,0-3.278,2.245-5.654,5.722-5.654,1.144,0,2.156.285,2.684.55l-.439,1.496c-.462-.264-1.188-.506-2.244-.506-2.442,0-3.763,1.804-3.763,4.026,0,2.464,1.584,3.982,3.696,3.982,1.101,0,1.826-.286,2.376-.528l.33,1.452Z" fill="#626366"/>
    <path d="M158.502,43.697c0,1.1.022,2.068.088,2.904h-1.716l-.11-1.738h-.044c-.506.858-1.628,1.98-3.521,1.98-1.672,0-3.675-.924-3.675-4.665v-6.227h1.937v5.896c0,2.024.616,3.389,2.377,3.389,1.298,0,2.2-.902,2.552-1.76.11-.286.176-.639.176-.99v-6.535h1.937v7.745Z" fill="#626366"/>
    <path d="M162.022,41.629c.044,2.618,1.716,3.696,3.652,3.696,1.386,0,2.222-.242,2.948-.55l.33,1.386c-.683.309-1.849.66-3.543.66-3.278,0-5.236-2.156-5.236-5.368s1.893-5.743,4.995-5.743c3.476,0,4.4,3.059,4.4,5.017,0,.396-.044.704-.066.902h-7.48ZM167.699,40.242c.021-1.231-.507-3.146-2.685-3.146-1.958,0-2.816,1.805-2.971,3.146h5.655Z" fill="#626366"/>
    <path d="M171.196,30.979h1.936v15.622h-1.936v-15.622Z" fill="#626366"/>
    <path d="M181.514,46.601l-.154-1.342h-.065c-.595.836-1.738,1.584-3.257,1.584-2.156,0-3.257-1.519-3.257-3.059,0-2.574,2.289-3.982,6.403-3.961v-.22c0-.88-.242-2.464-2.421-2.464-.989,0-2.023.308-2.771.792l-.44-1.276c.88-.572,2.156-.946,3.498-.946,3.257,0,4.049,2.223,4.049,4.356v3.982c0,.925.044,1.826.176,2.553h-1.76ZM181.228,41.167c-2.112-.044-4.511.33-4.511,2.398,0,1.254.836,1.848,1.826,1.848,1.387,0,2.267-.88,2.574-1.782.066-.197.11-.418.11-.616v-1.848Z" fill="#626366"/>
    <path d="M198.542,30.979v12.872c0,.945.021,2.023.088,2.75h-1.738l-.088-1.849h-.044c-.595,1.188-1.893,2.091-3.631,2.091-2.574,0-4.555-2.179-4.555-5.413-.022-3.542,2.179-5.721,4.774-5.721,1.629,0,2.729.771,3.213,1.628h.044v-6.358h1.937ZM196.606,40.287c0-.242-.022-.572-.088-.814-.286-1.232-1.343-2.244-2.795-2.244-2.002,0-3.19,1.76-3.19,4.114,0,2.156,1.057,3.938,3.146,3.938,1.299,0,2.486-.858,2.839-2.311.065-.264.088-.527.088-.836v-1.848Z" fill="#626366"/>
    <path d="M202.061,41.629c.044,2.618,1.716,3.696,3.652,3.696,1.386,0,2.222-.242,2.948-.55l.33,1.386c-.683.309-1.849.66-3.543.66-3.278,0-5.236-2.156-5.236-5.368s1.893-5.743,4.995-5.743c3.476,0,4.4,3.059,4.4,5.017,0,.396-.044.704-.066.902h-7.48ZM207.738,40.242c.021-1.231-.507-3.146-2.685-3.146-1.958,0-2.816,1.805-2.971,3.146h5.655Z" fill="#626366"/>
    <path d="M125.81,69.195l-1.056,3.807h-3.477l4.532-14.83h4.4l4.599,14.83h-3.608l-1.144-3.807h-4.247ZM129.573,66.687l-.924-3.146c-.265-.881-.528-1.98-.748-2.861h-.044c-.221.881-.44,2.003-.683,2.861l-.88,3.146h3.278Z" fill="#626366"/>
    <path d="M136.744,65.785c0-1.584-.044-2.618-.088-3.543h2.882l.11,1.98h.088c.55-1.562,1.87-2.223,2.904-2.223.308,0,.462,0,.704.044v3.146c-.242-.044-.528-.088-.902-.088-1.232,0-2.068.66-2.288,1.694-.044.221-.066.484-.066.748v5.457h-3.344v-7.217Z" fill="#626366"/>
    <path d="M152.254,71.66h-.044c-.683,1.012-1.761,1.584-3.19,1.584-2.333,0-4.467-2.047-4.467-5.479,0-3.851,2.464-5.766,4.753-5.766,1.386,0,2.397.507,2.992,1.496h.044l.088-1.254h3.234c-.021,1.034-.066,2.112-.066,3.234v11.882h-3.344v-5.698ZM152.254,66.753c0-.176-.022-.374-.066-.55-.176-.858-.902-1.606-1.914-1.606-1.54,0-2.311,1.298-2.311,3.036,0,1.805.858,2.971,2.267,2.971.946,0,1.716-.638,1.937-1.519.065-.22.088-.506.088-.726v-1.606Z" fill="#626366"/>
    <path d="M168.469,69.548c0,1.408.044,2.552.088,3.454h-2.904l-.154-1.519h-.066c-.418.66-1.43,1.761-3.366,1.761-2.179,0-3.784-1.364-3.784-4.687v-6.315h3.366v5.787c0,1.562.506,2.508,1.672,2.508.925,0,1.452-.638,1.673-1.166.088-.197.109-.462.109-.726v-6.403h3.367v7.306Z" fill="#626366"/>
    <path d="M174.671,59.25c0,.924-.704,1.672-1.805,1.672-1.056,0-1.76-.748-1.737-1.672-.022-.968.682-1.694,1.76-1.694s1.761.727,1.782,1.694ZM171.217,73.002v-10.76h3.344v10.76h-3.344Z" fill="#626366"/>
    <path d="M181.051,59.162v3.08h2.398v2.465h-2.398v3.895c0,1.298.308,1.892,1.32,1.892.418,0,.748-.044.99-.088l.021,2.53c-.439.177-1.231.286-2.178.286-1.078,0-1.98-.374-2.509-.924-.616-.638-.924-1.672-.924-3.19v-4.4h-1.431v-2.465h1.431v-2.332l3.278-.748Z" fill="#626366"/>
    <path d="M188.025,68.689c.109,1.386,1.474,2.046,3.036,2.046,1.145,0,2.068-.153,2.971-.439l.439,2.266c-1.1.44-2.442.66-3.895.66-3.652,0-5.742-2.112-5.742-5.479,0-2.729,1.694-5.743,5.435-5.743,3.477,0,4.797,2.707,4.797,5.369,0,.572-.066,1.078-.11,1.32h-6.931ZM191.963,66.401c0-.814-.353-2.179-1.893-2.179-1.408,0-1.98,1.276-2.068,2.179h3.961Z" fill="#626366"/>
    <path d="M205.207,72.738c-.594.264-1.716.483-2.992.483-3.477,0-5.699-2.112-5.699-5.501,0-3.146,2.156-5.721,6.161-5.721.88,0,1.849.154,2.553.418l-.528,2.486c-.396-.176-.99-.329-1.87-.329-1.761,0-2.904,1.254-2.883,3.014,0,1.98,1.32,3.015,2.948,3.015.792,0,1.408-.132,1.915-.33l.396,2.465Z" fill="#626366"/>
    <path d="M210.861,59.162v3.08h2.398v2.465h-2.398v3.895c0,1.298.308,1.892,1.32,1.892.418,0,.748-.044.99-.088l.021,2.53c-.439.177-1.231.286-2.178.286-1.078,0-1.98-.374-2.509-.924-.616-.638-.924-1.672-.924-3.19v-4.4h-1.431v-2.465h1.431v-2.332l3.278-.748Z" fill="#626366"/>
    <path d="M225.404,69.548c0,1.408.044,2.552.088,3.454h-2.904l-.154-1.519h-.065c-.418.66-1.431,1.761-3.367,1.761-2.178,0-3.784-1.364-3.784-4.687v-6.315h3.366v5.787c0,1.562.507,2.508,1.673,2.508.924,0,1.452-.638,1.672-1.166.088-.197.11-.462.11-.726v-6.403h3.366v7.306Z" fill="#626366"/>
    <path d="M228.152,65.785c0-1.584-.044-2.618-.088-3.543h2.883l.109,1.98h.088c.551-1.562,1.871-2.223,2.905-2.223.308,0,.462,0,.704.044v3.146c-.242-.044-.528-.088-.902-.088-1.232,0-2.068.66-2.289,1.694-.044.221-.065.484-.065.748v5.457h-3.345v-7.217Z" fill="#626366"/>
    <path d="M242.695,73.002l-.198-1.078h-.066c-.704.858-1.804,1.32-3.08,1.32-2.179,0-3.477-1.584-3.477-3.301,0-2.794,2.509-4.137,6.315-4.114v-.154c0-.572-.309-1.386-1.959-1.386-1.1,0-2.266.374-2.97.813l-.616-2.156c.748-.418,2.222-.946,4.181-.946,3.586,0,4.73,2.112,4.73,4.643v3.741c0,1.034.044,2.024.154,2.618h-3.015ZM242.298,67.919c-1.76-.021-3.124.396-3.124,1.694,0,.858.572,1.276,1.32,1.276.836,0,1.518-.55,1.738-1.232.044-.176.065-.374.065-.572v-1.166Z" fill="#626366"/>
  </g>
</svg>